<svg xmlns="http://www.w3.org/2000/svg" fill="none" viewBox="0 0 53 53" style="height: 60px; width: 60px;"><path fill="#28D728" d="M26.5 0C11.864 0 0 11.864 0 26.5a26.5 26.5 0 0 0 2.856 11.902s1.53 3.06 4.176 3.05c2.06-.006 3.345-1.576 4.162-2.76.233-.336.44-.657.602-.883L19.875 26.5l6.625 9.275 4.259-5.962L26.5 23.85l-5.679-7.95s-.403-.662-.946-.662c-.543 0-.946.662-.946.662L7.637 31.709l-.001.001.001-.002A19.573 19.573 0 0 1 6.93 26.5a19.571 19.571 0 1 1 39.042 1.954c-.048.402-.108.803-.181 1.202l2.476 3.468s.454.645.925 1.368c.17.26.35.525.514.819.162.294.278.532.347.734.094.272.17.486.222.712.053.225.075.405.097.601.032.318.035.48.034.516A26.5 26.5 0 0 0 53 26.5 26.5 26.5 0 0 0 26.5 0Z"></path><path fill="#136D13" d="M33.125 15.238c-.543 0-.946.662-.946.662l-4.733 6.626 4.259 5.962 1.42-1.988 3.74 5.235h.016l4.931 6.903.019.025a19.518 19.518 0 0 1-1.696 1.876 19.58 19.58 0 0 1-12.25 5.482 19.554 19.554 0 0 1-10.767-2.346 19.57 19.57 0 0 1-4.657-3.54 55.58 55.58 0 0 1-.366-.417c-.147.206-.38.488-.527.694-.09.127-.218.236-.327.378-.11.142-.248.27-.379.419-.132.148-.275.278-.433.424-.158.146-.405.307-.593.441-.188.134-.383.194-.606.309a3.344 3.344 0 0 1-.846.283c-.314.061-.674.102-1.016.126-.434-.02-.95-.066-1.187-.13a6.062 6.062 0 0 1-.905-.332c.116.155.472.612.579.734A26.5 26.5 0 0 0 26.5 53a26.5 26.5 0 0 0 19.446-8.55l.409-.466c.748-.84 1.468-1.71 2.104-2.64l.182-.283s.833-1.5.56-2.918c-.273-1.418-.82-2.095-.947-2.301-.127-.207-1.09-1.61-1.09-1.61l-1.816-2.544L34.072 15.9s-.404-.662-.947-.662Z"></path></svg>