<svg width="139" height="139" viewBox="0 0 140 140" fill="none" xmlns="http://www.w3.org/2000/svg">
<rect width="140" height="140" rx="70" fill="#1A2638"/>
<path fill-rule="evenodd" clip-rule="evenodd" d="M52.0054 109V89H72.0054C83.0511 89 92.0054 97.9543 92.0054 109H52.0054ZM21.9999 79C21.9999 62.4315 35.4314 49 51.9999 49C63.0456 49 71.9999 57.9543 71.9999 69H51.9999C46.4771 69 41.9999 73.4772 41.9999 79C41.9999 84.5228 46.4771 89 51.9999 89V109C35.4314 109 21.9999 95.5685 21.9999 79Z" fill="#B9ED96"/>
<path fill-rule="evenodd" clip-rule="evenodd" d="M91.0067 33V53H71.0067C59.961 53 51.0067 44.0457 51.0067 33H91.0067ZM121.007 63C121.007 79.5685 107.575 93 91.0067 93C79.961 93 71.0067 84.0457 71.0067 73H91.0067C96.5296 73 101.007 68.5228 101.007 63C101.007 57.4772 96.5296 53 91.0067 53V33C107.575 33 121.007 46.4315 121.007 63Z" fill="#7FDD40"/>
</svg>
