<svg width="139" height="139" viewBox="0 0 140 140" fill="none" preserveAspectRatio="xMidYMid meet" xmlns="http://www.w3.org/2000/svg">
<path fill-rule="evenodd" clip-rule="evenodd" d="M55.0054 110V90H75.0054C86.0511 90 95.0054 98.9543 95.0054 110H55.0054ZM24.9999 80C24.9999 63.4315 38.4313 50 54.9999 50C66.0456 50 74.9999 58.9543 74.9999 70H54.9999C49.477 70 44.9999 74.4772 44.9999 80C44.9999 85.5228 49.477 90 54.9999 90V110C38.4313 110 24.9999 96.5685 24.9999 80Z" fill="#B9ED96"/>
<path fill-rule="evenodd" clip-rule="evenodd" d="M91.0067 33V53H71.0067C59.961 53 51.0067 44.0457 51.0067 33H91.0067ZM121.007 63C121.007 79.5685 107.575 93 91.0068 93C79.9611 93 71.0068 84.0457 71.0068 73H91.0068C96.5296 73 101.007 68.5228 101.007 63C101.007 57.4772 96.5296 53 91.0068 53V33C107.575 33 121.007 46.4315 121.007 63Z" fill="#7FDD40"/>
</svg>
